<?xml version="1.0" ?><svg xmlns="http://www.w3.org/2000/svg" id="Hedgehog" viewBox="0 0 64 64"><defs><style>
      .cls-1 {
        stroke-width: 0px;
      }
    </style></defs><path class="cls-1" d="M61.83,33.44c-.19-.28-.5-.44-.83-.44-4.22,0-5.56-2.78-5.91-3.82,1.07-1.63,4.05-7.45-2.38-13.89-.29-.28-.71-.36-1.09-.21-.37.15-.61.51-.62.91-.01.36-.1,1.35-.97,1.79-.07-1.19-.39-2.96-1.6-4.55-1.37-1.79-3.49-2.87-6.31-3.22-.33-.05-.67.09-.89.36-.22.26-.29.62-.18.95.2.59.33,1.25.38,1.8-1.95-1.49-6.05-3.56-12.65-2.1-.39.09-.69.4-.76.8-.08.39.09.79.42,1.01.44.3,1.13.85,1.68,1.48-2.46-.6-6.55-.89-10.67,1.86-.32.21-.49.58-.44.96s.31.7.67.82c.28.09.99.4,1.55.83-3.09-.18-8.99.28-12.1,5.72-.17.31-.17.69,0,1,.18.31.51.5.87.5.01,0,1.09.02,2.01.46-2.4.75-6.44,2.67-7.96,7.22-.13.39-.01.81.29,1.08.31.26.75.31,1.11.13,0,0,.29-.13.73-.23-1.88,1.48-4.18,3.98-4.18,7.34,0,.35.18.67.47.85.3.18.67.2.98.05.01-.01.96-.48,2.14-.74-.48,1.93-.97,5.32.52,8.29.17.34.51.55.89.55s.72-.21.89-.55c.01-.01.39-.74,1.11-1.47v4.02c0,.55.45,1,1,1h15c.38,0,.72-.21.89-.55.17-.34.14-.75-.09-1.05l-1.8-2.4h14s.06-.02.1-.02l.94,3.29c.12.43.51.73.96.73h13c.55,0,1-.45,1-1,0-2.91-1.22-5.49-2.42-7.33,2.12-1.88,3.55-3.99,4.07-4.82,4.17-1.31,6.19-6.26,6.28-6.48.12-.31.08-.66-.1-.93ZM16.29,51.71l.3.29h-5.59v-4.49c1.07-.74,4.31-2.77,8.66-3.35l-3.53,6.35c-.22.39-.15.88.16,1.2ZM54.76,39.03c-.27.07-.49.24-.63.47-.01.03-1.74,3-4.52,5.21-.61.49-1.23.91-1.87,1.25-.37-1.43-.81-2.33-.85-2.41-.24-.49-.84-.69-1.33-.44-.5.24-.7.84-.46,1.34.02.03,1.63,3.34,1.05,7.55h-5.4l-1.79-6.27c-.15-.54-.71-.84-1.23-.69-.54.15-.84.7-.69,1.23l.49,1.73h-17.72l2.22-4c6.1,0,12.22-.66,15.77-5.4,3.35-4.47,5.02-4.6,5.2-4.6.4,0,.77-.24.92-.62.16-.37.07-.8-.21-1.09-.3-.29-1.13-1.34-1.04-2.24.05-.45.34-.85.88-1.22.84-.56,1.2-.36,1.32-.3.7.38,1.13,1.9,1.13,2.47,0,.4.24.76.61.92.37.15.8.07,1.09-.2.02-.02,1.64-1.53,5.55-1.7.67,1.82,2.51,4.31,6.19,4.87-.82,1.41-2.4,3.57-4.68,4.14Z"/><path class="cls-1" d="M51.71,32.29c-.39-.39-1.02-.39-1.41,0s-.39,1.02,0,1.41l1,1c.2.2.45.29.71.29s.51-.1.71-.29c.39-.39.39-1.02,0-1.41l-1-1Z"/></svg>